<svg xmlns="http://www.w3.org/2000/svg" width="197" height="32" viewBox="0 0 197 32">
  <g fill="#F7931E" fill-rule="evenodd" transform="translate(.5)">
    <polygon points="16 24 6.595 28.944 8.392 18.472 .783 11.056 11.298 9.528 16 0 20.702 9.528 31.217 11.056 23.608 18.472 25.405 28.944"/>
    <polygon points="57 24 47.595 28.944 49.392 18.472 41.783 11.056 52.298 9.528 57 0 61.702 9.528 72.217 11.056 64.608 18.472 66.405 28.944"/>
    <polygon points="98 24 88.595 28.944 90.392 18.472 82.783 11.056 93.298 9.528 98 0 102.702 9.528 113.217 11.056 105.608 18.472 107.405 28.944"/>
    <polygon points="139 24 129.595 28.944 131.392 18.472 123.783 11.056 134.298 9.528 139 0 143.702 9.528 154.217 11.056 146.608 18.472 148.405 28.944"/>
    <polygon points="180 24 170.595 28.944 172.392 18.472 164.783 11.056 175.298 9.528 180 0 184.702 9.528 195.217 11.056 187.608 18.472 189.405 28.944"/>
  </g>
</svg>
