<svg xmlns="http://www.w3.org/2000/svg" xmlns:xlink="http://www.w3.org/1999/xlink" width="185" height="117" viewBox="0 0 185 117">
  <defs>
    <path id="logo-a" d="M8.7189515,23.8762323 C11.8595765,23.8762323 14.1681703,22.5520135 15.258014,20.2668573 C15.445514,19.8801385 15.539264,19.5402948 15.539264,19.1770135 C15.539264,18.4856073 15.0470765,17.9934198 14.3322328,17.9934198 C13.758014,17.9934198 13.4181703,18.2512323 13.1369203,18.872326 C12.351764,20.700451 10.7697328,21.5793573 8.70723275,21.5793573 C5.601764,21.5793573 3.633014,19.0832635 3.633014,15.1340448 C3.633014,11.2199823 5.6252015,8.70045103 8.695514,8.70045103 C10.6408265,8.70045103 12.304889,9.70826353 13.0900453,11.5949823 C13.383014,12.2746698 13.7931703,12.5793573 14.414264,12.5793573 C15.117389,12.5793573 15.586139,12.122326 15.586139,11.419201 C15.586139,11.1027948 15.5041078,10.7512323 15.3400453,10.4113885 C14.2853578,7.91529478 11.8009828,6.40357603 8.695514,6.40357603 C3.97285775,6.40357603 0.949420253,9.77857603 0.949420253,15.1340448 C0.949420253,20.5246698 3.9377015,23.8762323 8.7189515,23.8762323 Z M24.7154058,23.8293573 C28.2427496,23.8293573 30.5630621,21.403576 30.5630621,17.4309198 C30.5630621,13.4699823 28.2310308,11.044201 24.7154058,11.044201 C21.1997808,11.044201 18.8677496,13.4699823 18.8677496,17.4309198 C18.8677496,21.403576 21.1880621,23.8293573 24.7154058,23.8293573 Z M24.7154058,21.7434198 C22.7349371,21.7434198 21.4458746,20.1731073 21.4458746,17.4309198 C21.4458746,14.700451 22.7349371,13.1301385 24.7154058,13.1301385 C26.6958746,13.1301385 27.9849371,14.700451 27.9849371,17.4309198 C27.9849371,20.1731073 26.7075933,21.7434198 24.7154058,21.7434198 Z M43.3602977,23.8176385 C44.0868602,23.8176385 44.5673289,23.3137323 44.5673289,22.528576 L44.5673289,12.3918573 C44.5673289,11.5481073 44.0517039,11.044201 43.3017039,11.044201 C42.5634227,11.044201 42.0360789,11.5481073 42.0360789,12.3918573 L42.0360789,18.450451 C42.0360789,20.372326 40.9345164,21.637951 39.1063914,21.637951 C37.3602977,21.637951 36.4696727,20.6301385 36.4696727,18.7551385 L36.4696727,12.3918573 C36.4696727,11.5481073 35.9423289,11.044201 35.2040477,11.044201 C34.4540477,11.044201 33.9384227,11.5481073 33.9384227,12.3918573 L33.9384227,19.247326 C33.9384227,22.0715448 35.5790477,23.8176385 38.2626414,23.8176385 C40.1493602,23.8176385 41.4032664,22.9856073 42.0829539,21.5090448 L42.1415477,21.5090448 L42.1415477,22.5402948 C42.1415477,23.3137323 42.6337352,23.8176385 43.3602977,23.8176385 Z M49.8059707,27.966076 C50.544252,27.966076 51.0715957,27.450451 51.0715957,26.6184198 L51.0715957,21.5676385 L51.1301895,21.5676385 C51.8333145,22.9387323 53.2395645,23.8059198 55.0090957,23.8059198 C58.1028457,23.8059198 60.153627,21.3332635 60.153627,17.4309198 C60.153627,13.528576 58.091127,11.0676385 54.9622207,11.0676385 C53.1809707,11.0676385 51.763002,11.9699823 51.0364395,13.387951 L50.9895645,13.387951 L50.9895645,12.3449823 C50.9895645,11.5363885 50.4739395,11.044201 49.7590957,11.044201 C49.044252,11.044201 48.5403457,11.5363885 48.5403457,12.3449823 L48.5403457,26.6184198 C48.5403457,27.450451 49.0559707,27.966076 49.8059707,27.966076 Z M54.294252,21.6613885 C52.3489395,21.6613885 51.059877,19.997326 51.059877,17.4309198 C51.059877,14.887951 52.3606582,13.200451 54.294252,13.200451 C56.2981582,13.200451 57.5520645,14.8527948 57.5520645,17.4309198 C57.5520645,20.0207635 56.2981582,21.6613885 54.294252,21.6613885 Z M85.6078337,23.8176385 C86.3578337,23.8176385 86.8851775,23.3137323 86.8851775,22.481701 L86.8851775,15.6145135 C86.8851775,12.7902948 85.3265837,11.0559198 82.6078337,11.0559198 C80.7093962,11.0559198 79.4203337,11.8996698 78.752365,13.3059198 L78.6937712,13.3059198 L78.6937712,12.3332635 C78.6937712,11.5481073 78.189865,11.044201 77.4633025,11.044201 C76.7250212,11.044201 76.2562712,11.5481073 76.2562712,12.3215448 L76.2562712,22.481701 C76.2562712,23.3137323 76.7718962,23.8176385 77.5218962,23.8176385 C78.2601775,23.8176385 78.7875212,23.3137323 78.7875212,22.481701 L78.7875212,16.4113885 C78.7875212,14.5012323 79.9359587,13.2356073 81.7172087,13.2356073 C83.4750212,13.2356073 84.3422087,14.2551385 84.3422087,16.106701 L84.3422087,22.481701 C84.3422087,23.3137323 84.8695525,23.8176385 85.6078337,23.8176385 Z M103.210117,23.8762323 C107.159336,23.8762323 109.667149,21.872326 109.667149,18.684826 C109.667149,16.2238885 108.214024,14.8059198 104.663242,14.0559198 L102.823399,13.669201 C100.631992,13.200451 99.7530861,12.3801385 99.7530861,11.1496698 C99.7530861,9.60279478 101.21793,8.64185728 103.198399,8.64185728 C104.885899,8.64185728 106.174961,9.30982603 106.74918,10.8684198 C107.018711,11.4777948 107.40543,11.7707635 108.038242,11.7707635 C108.71793,11.7707635 109.198399,11.325451 109.198399,10.6457635 C109.198399,10.3996698 109.163242,10.200451 109.104649,10.0363885 C108.448399,7.77466978 106.151524,6.40357603 103.233555,6.40357603 C99.6358986,6.40357603 97.0929299,8.39576353 97.0929299,11.2902948 C97.0929299,13.7277948 98.6280861,15.2981073 102.003086,16.012951 L103.854649,16.3996698 C106.116367,16.8918573 107.006992,17.7121698 107.006992,19.0246698 C107.006992,20.5363885 105.471836,21.637951 103.327305,21.637951 C101.370274,21.637951 99.8351174,20.8996698 99.3077736,19.3176385 C99.0499611,18.684826 98.6632424,18.4152948 98.0655861,18.4152948 C97.3507424,18.4152948 96.8819924,18.9074823 96.8819924,19.669201 C96.8819924,19.950451 96.9405861,20.231701 97.0226174,20.4895135 C97.6788674,22.4582635 99.9288674,23.8762323 103.210117,23.8762323 Z M122.804228,23.8176385 C123.554228,23.8176385 124.081572,23.3137323 124.081572,22.481701 L124.081572,15.6496698 C124.081572,12.8606073 122.464384,11.0559198 119.757353,11.0559198 C117.882353,11.0559198 116.534697,11.887951 115.855009,13.3293573 L115.796415,13.3293573 L115.796415,7.77466978 C115.796415,6.97779478 115.327665,6.46216978 114.542509,6.46216978 C113.769072,6.46216978 113.288603,6.97779478 113.288603,7.77466978 L113.288603,22.481701 C113.288603,23.3137323 113.815947,23.8176385 114.554228,23.8176385 C115.292509,23.8176385 115.819853,23.3137323 115.819853,22.481701 L115.819853,16.4699823 C115.819853,14.5246698 116.96829,13.2356073 118.84329,13.2356073 C120.62454,13.2356073 121.538603,14.325451 121.538603,16.1418573 L121.538603,22.481701 C121.538603,23.3137323 122.065947,23.8176385 122.804228,23.8176385 Z M141.942028,27.966076 C142.68031,27.966076 143.207653,27.450451 143.207653,26.6184198 L143.207653,21.5676385 L143.266247,21.5676385 C143.969372,22.9387323 145.375622,23.8059198 147.145153,23.8059198 C150.238903,23.8059198 152.289685,21.3332635 152.289685,17.4309198 C152.289685,13.528576 150.227185,11.0676385 147.098278,11.0676385 C145.317028,11.0676385 143.89906,11.9699823 143.172497,13.387951 L143.125622,13.387951 L143.125622,12.3449823 C143.125622,11.5363885 142.609997,11.044201 141.895153,11.044201 C141.18031,11.044201 140.676403,11.5363885 140.676403,12.3449823 L140.676403,26.6184198 C140.676403,27.450451 141.192028,27.966076 141.942028,27.966076 Z M146.43031,21.6613885 C144.484997,21.6613885 143.195935,19.997326 143.195935,17.4309198 C143.195935,14.887951 144.496716,13.200451 146.43031,13.200451 C148.434216,13.200451 149.688122,14.8527948 149.688122,17.4309198 C149.688122,20.0207635 148.434216,21.6613885 146.43031,21.6613885 Z M157.059577,9.40357603 C157.879889,9.40357603 158.536139,8.74732603 158.536139,7.95045103 C158.536139,7.14185728 157.879889,6.50904478 157.059577,6.50904478 C156.250983,6.50904478 155.594733,7.14185728 155.594733,7.95045103 C155.594733,8.74732603 156.250983,9.40357603 157.059577,9.40357603 Z M157.059577,23.8176385 C157.821295,23.8176385 158.325202,23.2902948 158.325202,22.481701 L158.325202,12.3918573 C158.325202,11.5715448 157.821295,11.044201 157.059577,11.044201 C156.297858,11.044201 155.793952,11.5715448 155.793952,12.3918573 L155.793952,22.481701 C155.793952,23.2902948 156.297858,23.8176385 157.059577,23.8176385 Z M164.407593,23.8176385 C165.169312,23.8176385 165.673218,23.3371698 165.673218,22.4934198 L165.673218,13.2707635 L167.302125,13.2707635 C167.899781,13.2707635 168.309937,12.919201 168.309937,12.2863885 C168.309937,11.6770135 167.899781,11.2902948 167.302125,11.2902948 L165.638062,11.2902948 L165.638062,10.1770135 C165.638062,9.05201353 166.083375,8.54810728 167.149781,8.53638853 C167.407593,8.53638853 167.618531,8.50123228 167.794312,8.45435728 C168.204468,8.33716978 168.403687,8.09107603 168.403687,7.68091978 C168.403687,7.00123228 167.759156,6.56763853 166.4115,6.56763853 C164.290406,6.57935728 163.13025,7.69263853 163.13025,10.0832635 L163.13025,11.2902948 L162.251343,11.2902948 C161.653687,11.2902948 161.243531,11.6770135 161.243531,12.2863885 C161.243531,12.919201 161.653687,13.2707635 162.251343,13.2707635 L163.13025,13.2707635 L163.13025,22.4934198 C163.13025,23.3371698 163.634156,23.8176385 164.407593,23.8176385 Z M173.126704,28.1887323 C175.41186,28.1887323 176.572016,27.1809198 177.66186,24.216076 L181.939204,12.9074823 C182.021235,12.6613885 182.06811,12.403576 182.06811,12.2043573 C182.06811,11.5246698 181.564204,11.044201 180.837641,11.044201 C180.19311,11.044201 179.841548,11.325451 179.63061,12.0168573 L176.478266,21.2981073 L176.44311,21.2981073 L173.302485,12.0168573 C173.079829,11.3137323 172.716548,11.044201 172.083735,11.044201 C171.345454,11.044201 170.794673,11.5246698 170.794673,12.216076 C170.794673,12.4152948 170.841548,12.6731073 170.935298,12.9309198 L175.060298,23.7238885 L174.825923,24.4387323 C174.368891,25.7043573 173.654048,26.091076 172.950923,26.091076 C172.657954,26.091076 172.564204,26.0793573 172.294673,26.0793573 C171.685298,26.0793573 171.310298,26.4309198 171.310298,26.9699823 C171.310298,27.7551385 171.954829,28.1887323 173.126704,28.1887323 Z"/>
  </defs>
  <g fill="none">
    <g transform="translate(38.929)">
      <polygon fill="#1E304B" points="72.61 46.349 70.206 37.366 104.599 37.366 106.798 25.045 54.148 25.045 63.156 58.67 88.278 58.67 86.67 67.653 55.39 67.653 43.218 25.045 .132 25.045 3.653 37.366 33.921 37.366 46.097 79.974 96.99 79.974 102.995 46.349"/>
      <polygon fill="#F7931E" points="30.404 25.045 43.218 25.045 58.911 79.974 46.097 79.974"/>
      <polygon fill="#F7931E" points="102.995 46.349 96.99 79.974 84.471 79.974 90.477 46.349"/>
      <polygon fill="#F7931E" points="66.667 25.045 76.325 58.67 63.156 58.67 54.148 25.045"/>
      <polygon fill="#F7931E" points="86.426 0 86.426 12.815 31.496 28.508 27.744 16.19"/>
    </g>
    <g transform="translate(.5 87)">
      <use fill="#000" xlink:href="#logo-a"/>
      <use fill="#1E304B" xlink:href="#logo-a"/>
      <circle cx="68.013" cy="17.595" r="7" fill="#F7931E"/>
      <circle cx="132.45" cy="17.595" r="7" fill="#F7931E"/>
    </g>
  </g>
</svg>
