<svg xmlns="http://www.w3.org/2000/svg" width="464" height="462" viewBox="0 0 464 462">
  <g fill="none" transform="translate(0 .573)">
    <path fill="#F4F7FA" d="M416.315457,97.0268722 C320.138163,-24.0946264 92.4393358,-30.8649693 25.4869319,65.2027673 C-11.4022279,118.134972 4.01363968,197.260974 11.6191609,236.301591 C25.615543,308.145981 60.1309545,354.398347 67.6682007,364.209311 C85.9563832,388.015068 130.376438,445.839259 197.209758,459.057623 C311.406898,481.64237 453.896894,366.651334 461.791393,236.916066 C466.343592,162.119972 424.630721,107.498357 416.315457,97.0268722 Z" transform="rotate(90 232 230.468)"/>
    <g transform="translate(373.26 137.121)">
      <circle cx="20.831" cy="20.831" r="20.091" fill="#7B83FF"/>
      <path fill="#FFF" d="M19.0403195,28.3621115 C18.5987609,28.3621115 18.1572024,28.2149253 17.7892369,27.9205529 L10.4789895,22.0576364 C9.62040341,21.3707675 9.47321722,20.1196849 10.1600861,19.2610988 C10.846955,18.4025127 12.0980376,18.2553265 12.9566237,18.9421954 L19.0893816,23.8484017 L30.6680284,15.5814441 C31.5511455,14.9436372 32.8022281,15.1398855 33.440035,16.0475337 C34.0778418,16.9306508 33.8815935,18.1817334 32.9739454,18.8195402 L20.1687469,27.9696149 C19.8498435,28.2394563 19.432816,28.3621115 19.0403195,28.3621115 Z"/>
    </g>
    <g transform="translate(338.013 98.775)">
      <circle cx="24.527" cy="24.42" r="18.692" fill="#FF4F4F" transform="rotate(-22.39 24.527 24.42)"/>
      <polygon fill="#FFF" points="24.531 11.268 28.505 19.314 37.41 20.615 30.958 26.894 32.479 35.75 24.531 31.555 16.583 35.75 18.104 26.894 11.677 20.615 20.557 19.314"/>
    </g>
    <g transform="translate(303.67 131.312)">
      <circle cx="19.134" cy="18.84" r="18.693" fill="#7B83FF"/>
      <path fill="#FFF" d="M27.3275691,12.0692675 C24.5310315,10.5728746 20.8513767,12.461764 19.1587356,15.0620533 C17.4415634,12.461764 13.5901914,10.5728746 10.7936538,12.0692675 C7.82539904,13.6637845 7.13853016,16.7546945 8.7330472,19.6984183 C10.3275642,22.6666731 19.1587356,29.8787963 19.1832666,29.7806722 C19.2077976,29.8787963 28.038969,22.642142 29.633486,19.6984183 C31.178941,16.7546945 30.2958239,13.6637845 27.3275691,12.0692675 Z"/>
    </g>
    <g transform="translate(344.726 151.84)">
      <path fill="#2CBFC6" d="M22.8959305,11.4356997 C22.8959305,17.7156438 17.793476,22.8180983 11.5135319,22.8180983 C5.23358785,22.8180983 0.131133304,17.7156438 0.131133304,11.4356997 C0.131133304,5.15575568 5.23358785,0.0533011364 11.5135319,0.0533011364 C17.793476,0.0778321678 22.8959305,5.15575568 22.8959305,11.4356997 Z"/>
      <g fill="#FFF" transform="translate(4.906 4.906)">
        <rect width="2.6" height="12.609" x="5.307" y=".25"/>
        <rect width="12.609" height="2.6" x=".303" y="5.254"/>
      </g>
    </g>
    <g transform="translate(195.087 183.73)">
      <path fill="#2CBFC6" d="M20.8598549,5.3274729 C24.5885717,10.3808654 23.5337373,17.4948645 18.4803448,21.2481123 C13.4269524,24.9768291 6.31295323,23.9219948 2.55970542,18.8686023 C-1.16901642,13.8152098 -0.11417701,6.70121066 4.93921547,2.94796285 C9.99260795,-0.780758987 17.1311381,0.27408042 20.8598549,5.3274729 Z"/>
      <g fill="#FFF" transform="translate(5.552 5.81)">
        <polygon points="4.884 -.015 7.484 -.015 7.484 12.594 4.884 12.594" transform="rotate(-36.526 6.184 6.29)"/>
        <polygon points="-.123 4.97 12.486 4.97 12.486 7.57 -.123 7.57" transform="rotate(-36.534 6.182 6.27)"/>
      </g>
    </g>
    <g transform="translate(51 213.168)">
      <g transform="translate(18.075)">
        <path fill="#6855EF" d="M151.704138,108.308743 L9.52227928,108.308743 C4.32170061,108.308743 0.102363199,104.089406 0.102363199,98.8888269 L0.102363199,9.91477579 C0.102363199,4.71419712 4.32170061,0.494859703 9.52227928,0.494859703 L151.704138,0.494859703 C156.904716,0.494859703 161.124054,4.71419712 161.124054,9.91477579 L161.124054,98.8888269 C161.124054,104.089406 156.904716,108.308743 151.704138,108.308743 Z"/>
        <path fill="#FFD3D2" d="M143.289994,101.58724 L15.1398855,101.58724 C10.3072723,101.58724 6.38230726,97.9075857 6.38230726,93.3448138 L6.38230726,15.4587889 C6.38230726,10.896017 10.3072723,7.21636233 15.1398855,7.21636233 L143.289994,7.21636233 C148.122607,7.21636233 152.047572,10.896017 152.047572,15.4587889 L152.047572,93.3448138 C152.047572,97.8830546 148.122607,101.58724 143.289994,101.58724 Z"/>
        <path fill="#3287B2" d="M156.659406,45.6319576 C157.689709,45.6319576 158.523764,46.4660127 158.523764,47.520847 L158.523764,61.2827557 C158.523764,62.313059 157.689709,63.1716451 156.659406,63.1716451 L156.659406,63.1716451 C155.629103,63.1716451 154.770517,62.33759 154.770517,61.2827557 L154.770517,47.520847 C154.795048,46.4905437 155.629103,45.6319576 156.659406,45.6319576 L156.659406,45.6319576 Z"/>
      </g>
      <path fill="#2CBFC6" d="M124.936543,70.113927 L69.6681294,70.113927 C66.4055022,70.113927 63.7806818,67.4891066 63.7806818,64.2264795 L63.7806818,43.3751027 C63.7806818,40.1124755 66.4055022,37.4876552 69.6681294,37.4876552 L124.936543,37.4876552 C128.19917,37.4876552 130.823991,40.1124755 130.823991,43.3751027 L130.823991,64.2264795 C130.823991,67.4645756 128.174639,70.113927 124.936543,70.113927 Z"/>
      <g transform="translate(0 36.797)">
        <path fill="#FE9249" d="M3.900434,73.4746783 C1.07936538,67.5136377 -2.37951005,33.2928488 2.33044799,28.9017941 C7.04040603,24.5107395 13.3203501,22.9407535 14.8903361,22.6218501 C16.4603221,22.3029467 13.3203501,1.59875612 19.9191976,0.347673514 C23.6233833,-0.363726399 27.7691276,0.985480332 27.4502242,12.9075616 C27.0331967,28.6564838 24.948059,72.8614025 24.948059,72.8614025 L3.900434,73.4746783 Z"/>
        <polygon fill="#FFD3D2" points="15.517 6.209 15.517 6.209 15.517 30.568 15.517 30.568" transform="rotate(-1.605 15.517 18.388)"/>
      </g>
      <path fill="#FFD3D2" d="M24.7518108,42.810889 C24.7518108,44.6261853 23.2799489,46.0980472 21.4646525,46.0980472 C19.6493562,46.0980472 18.1774943,44.6261853 18.1774943,42.810889 C18.1774943,40.9955927 19.6493562,39.5237308 21.4646525,39.5237308 C23.2799489,39.4991997 24.7518108,40.9710616 24.7518108,42.810889 Z"/>
      <path fill="#FFBDBD" d="M3.40981337 109.339046L24.8989969 109.339046 24.8989969 142.774842C24.8989969 143.976863 23.9177557 144.982635 22.6912041 144.982635L5.61760621 144.982635C4.41558566 144.982635 3.40981337 144.001394 3.40981337 142.774842L3.40981337 109.339046zM141.715769 109.339046L164.480566 117.532411 168.381 142.774842C168.381 143.976863 167.399759 144.982635 166.173207 144.982635L143.899031 144.982635C142.69701 144.982635 141.691238 144.001394 141.691238 142.774842L141.691238 109.339046 141.715769 109.339046z"/>
      <g transform="translate(115.296 49.062)">
        <path fill="#FE9249" d="M2.96825481,50.3909777 C1.10389642,46.7849161 3.80230988,43.571351 8.90476442,35.7214209 C10.155847,33.7834694 9.15007474,29.6867872 6.64790953,24.3880844 C1.37373776,13.3000581 -2.20779283,5.27841084 4.12121329,1.47610096 C10.4256884,-2.30167788 11.676771,8.27119668 14.6940878,16.341906 C17.7114047,24.3880844 18.4718667,29.4414768 20.4834113,29.4414768 C21.1948112,29.4414768 21.808087,28.5092976 25.5613348,28.2639873 C28.823962,28.0677391 28.5050586,29.564132 30.6147273,29.6867872 C32.7979891,29.8094423 34.8095337,28.4111735 37.5570092,28.8527321 C38.5137194,29.0244493 39.9610503,30.0792837 41.5555673,30.6189663 C42.9783671,31.0850559 46.1428702,29.9075664 48.2525389,31.919111 C53.6984279,37.0706276 49.1847181,68.4703479 49.1847181,68.4703479 L26.6897622,76.5165262 C26.6897622,76.5165262 16.6075083,70.2611132 12.6089502,67.3419205 C10.0331919,65.453031 6.03463374,56.2784253 2.96825481,50.3909777 Z"/>
        <polygon fill="#FFD3D2" points="11.84 30.334 11.84 30.334 11.84 54.693 11.84 54.693" transform="rotate(-14.934 11.84 42.514)"/>
        <path fill="#FFD3D2" d="M10.106785,7.85416914 C10.106785,9.66946547 8.63492308,11.1413274 6.81962675,11.1413274 C5.00433042,11.1413274 3.53246853,9.66946547 3.53246853,7.85416914 C3.53246853,6.03887281 5.00433042,4.56701093 6.81962675,4.56701093 C8.63492308,4.56701093 10.106785,6.03887281 10.106785,7.85416914 Z"/>
      </g>
      <path fill="#FFD3D2" d="M2.79653759 106.199074L24.923528 106.199074 24.923528 116.232266 2.79653759 116.232266C1.3246757 116.232266.122655157 115.030246.122655157 113.558384L.122655157 108.848426C.122655157 107.401095 1.3246757 106.199074 2.79653759 106.199074zM166.418517 119.543955L168.013035 123.984072C168.503655 125.35781 167.792255 126.903265 166.393986 127.393885L142.770603 135.881622C141.396865 136.372243 139.85141 135.660843 139.36079 134.287105L137.766273 129.846989C137.275652 128.473251 137.987052 126.927796 139.36079 126.437175L162.984173 117.949438C164.406973 117.434287 165.927897 118.145687 166.418517 119.543955z"/>
      <g fill="#FFF" transform="translate(81.856 48.159)">
        <path d="M.666576923 11.1616193L.666576923.539682692 6.06340385.539682692C7.19183129.539682692 8.00135533.83405507 8.51650699 1.39826879 9.03165865 1.96248252 9.27696897 2.60028934 9.27696897 3.33622028 9.27696897 3.87590297 9.12978278 4.34199257 8.8354104 4.7590201 8.54103802 5.17604764 8.09947946 5.47042002 7.5107347 5.64213724 8.88447247 5.98557168 9.57134135 6.79509572 9.57134135 8.11977142 9.57134135 8.90476442 9.32603103 9.61616434 8.8354104 10.2294401 8.34478977 10.8427159 7.31448645 11.1616193 5.71996941 11.1616193L.666576923 11.1616193zM3.68389379 4.61183392L5.18028671 4.61183392C5.54825219 4.61183392 5.81809353 4.51370979 5.98981075 4.31746154 6.13699694 4.12121329 6.21059003 3.92496503 6.21059003 3.70418575 6.21059003 3.115441 5.84262456 2.82106862 5.13122465 2.82106862L3.68389379 2.82106862 3.68389379 4.61183392zM3.68389379 8.8066403L5.27841084 8.8066403C5.67090734 8.8066403 5.96527972 8.70851617 6.13699694 8.51226792 6.33324519 8.31601967 6.40683829 8.09524038 6.40683829 7.84993007 6.40683829 7.60461976 6.30871416 7.38384047 6.13699694 7.18759222 5.96527972 6.99134397 5.62184528 6.86868881 5.15575568 6.86868881L3.68389379 6.86868881 3.68389379 8.8066403zM20.3159331.539682692L20.3159331 7.58008872C20.3159331 8.90476442 19.9234366 9.86147465 19.1384436 10.4502194 18.3534506 11.0389642 17.3231473 11.3333365 16.0475337 11.3333365 14.6983269 11.3333365 13.6434926 11.0634952 12.8339685 10.4992815 12.0244445 9.93506774 11.607417 9.02741958 11.607417 7.75180594L11.607417.539682692 14.9191062.539682692 14.9191062 7.35930944C14.9191062 7.8744611 15.0172303 8.24242657 15.2380096 8.46320586 15.4587889 8.70851617 15.8022233 8.8066403 16.2683129 8.8066403 16.6608094 8.8066403 16.9797128 8.7330472 17.2250232 8.56132998 17.4703335 8.38961276 17.6175197 8.19336451 17.6665817 7.99711626 17.7156438 7.77633698 17.7401748 7.35930944 17.7401748 6.74603365L17.7401748.539682692 20.3159331.539682692z"/>
        <polygon points="31.649 .54 28.338 6.648 28.338 11.137 25.173 11.137 25.173 6.648 21.592 .54 25.149 .54 27.013 4.048 28.804 .54"/>
      </g>
      <path fill="#FFF" d="M8.48773689,50.681111 C8.48773689,52.9134349 6.67244056,54.7042002 4.46464773,54.7042002 L4.46464773,54.7042002 C2.23232386,54.7042002 0.441558566,52.9134349 0.441558566,50.681111 L0.441558566,4.78355114 C0.441558566,2.55122727 2.23232386,0.760461976 4.46464773,0.760461976 L4.46464773,0.760461976 C6.69697159,0.760461976 8.48773689,2.55122727 8.48773689,4.78355114 L8.48773689,50.681111 Z" opacity=".19" transform="translate(142.28 11.362)"/>
      <path fill="#FFF" d="M8.70851617,21.2929353 C8.70851617,23.5252592 6.91775087,25.3160245 4.68542701,25.3160245 L4.68542701,25.3160245 C2.45310315,25.3160245 0.66233785,23.5252592 0.66233785,21.2929353 L0.66233785,4.78355114 C0.66233785,2.55122727 2.47763418,0.760461976 4.68542701,0.760461976 L4.68542701,0.760461976 C6.91775087,0.760461976 8.70851617,2.55122727 8.70851617,4.78355114 L8.70851617,21.2929353 Z" opacity=".19" transform="translate(154.545 11.362)"/>
    </g>
    <g transform="translate(285.852 69.338)">
      <circle cx="32.214" cy="32.206" r="24.457" fill="#6855EF" transform="rotate(-22.359 32.214 32.206)"/>
      <path fill="#FFF" d="M45.8324449,43.1095004 L19.1917448,43.1095004 C18.0878483,43.1095004 17.2047312,42.2263833 17.2047312,41.1224869 L17.2047312,24.097951 C17.2047312,22.9940546 18.0878483,22.1109375 19.1917448,22.1109375 L45.8324449,22.1109375 C46.9363413,22.1109375 47.8194585,22.9940546 47.8194585,24.097951 L47.8194585,41.1224869 C47.8194585,42.2018523 46.9363413,43.1095004 45.8324449,43.1095004 Z M21.2032893,39.1109423 L43.8454314,39.1109423 L43.8454314,26.0604336 L21.2032893,26.0604336 L21.2032893,39.1109423 Z"/>
      <circle cx="32.856" cy="32.169" r="3.778" fill="#FFF"/>
      <path fill="#FFF" d="M39.6996871,25.5452819 C38.3259493,25.5452819 37.1975219,24.4413855 37.1975219,23.0431167 L37.1975219,21.0070411 C37.1975219,19.6333033 38.3014183,18.5048759 39.6996871,18.5048759 C41.0979559,18.5048759 42.2018523,19.6087723 42.2018523,21.0070411 L42.2018523,23.0431167 C42.1773212,24.4413855 41.0734248,25.5452819 39.6996871,25.5452819 Z"/>
    </g>
    <g transform="translate(146.671 83.153)">
      <circle cx="30.274" cy="29.69" r="22.642" fill="#7B83FF" transform="rotate(-22.631 30.274 29.69)"/>
      <path fill="#FFF" d="M20.8759078,40.1124755 C20.3607561,40.1124755 19.8456045,39.9162273 19.453108,39.4991997 C18.692646,38.7142067 18.692646,37.4385931 19.477639,36.6781311 L37.9740367,18.647823 C38.7590297,17.887361 40.0346434,17.887361 40.7951053,18.672354 C41.5555673,19.457347 41.5555673,20.7329607 40.7705743,21.4934226 L22.2741766,39.5237308 C21.8816801,39.9162273 21.3665284,40.1124755 20.8759078,40.1124755 Z"/>
      <circle cx="23.623" cy="22.131" r="4.342" fill="#FFF"/>
      <path fill="#FFF" d="M41.8744707,35.5987657 C41.8744707,38.0028068 39.9365192,39.9407583 37.5324781,39.9407583 C35.1284371,39.9407583 33.1904856,38.0028068 33.1904856,35.5987657 C33.1904856,33.1947247 35.1284371,31.2567732 37.5324781,31.2567732 C39.9365192,31.2813042 41.8744707,33.2192557 41.8744707,35.5987657 Z"/>
      <circle cx="37.532" cy="35.599" r="1.815" fill="#4396CA"/>
      <circle cx="23.623" cy="22.131" r="1.815" fill="#4396CA"/>
    </g>
    <g transform="translate(343.823 175.468)">
      <circle cx="27.874" cy="27.573" r="22.643" fill="#2CBFC6" transform="rotate(-13.226 27.874 27.573)"/>
      <g transform="translate(11.362 18.075)">
        <path fill="#FFF" d="M33.0923615,10.896017 C33.0923615,10.896017 26.8369484,20.1196849 15.9942325,19.5309401 C6.03463374,18.9912574 0.686868881,10.896017 0.686868881,10.896017 C0.686868881,10.896017 5.15151661,0.78923208 15.9942325,0.494859703 C28.6277137,0.151425262 33.0923615,10.896017 33.0923615,10.896017 Z"/>
        <path fill="#2CBFC6" d="M24.0158798,10.1600861 C24.0158798,13.9378649 20.9495009,17.0042439 17.171722,17.0042439 C13.3939432,17.0042439 10.3275642,13.9378649 10.3275642,10.1600861 C10.3275642,6.38230726 13.3939432,3.31592832 17.171722,3.31592832 C20.9495009,3.34045935 24.0158798,6.38230726 24.0158798,10.1600861 Z"/>
      </g>
    </g>
    <g transform="translate(100.965 105.231)">
      <circle cx="25.59" cy="25.566" r="25.071" fill="#FF4F4F"/>
      <path fill="#FFF" d="M24.927767,28.0922701 C24.927767,26.5222841 25.0013601,26.1788497 23.4068431,25.639167 C20.3649952,24.5352705 18.0836093,22.4256018 18.0836093,19.0893816 C18.0836093,15.7531613 20.2914021,12.9811547 23.8974637,12.3188169 C24.4862085,12.1961617 24.8296429,12.0735066 24.854174,11.2639825 C24.878705,10.5771136 25.9090083,10.6507067 26.448691,10.6507067 C27.0619668,10.6507067 27.0129047,10.9205481 27.0129047,11.3866377 C27.0129047,12.2206927 28.0922701,12.0980376 29.0244493,12.2452238 C29.5150699,12.3433479 32.7286351,12.8830306 32.7286351,13.5944305 C32.7286351,13.8397408 31.5020835,17.4458024 31.0605249,17.4458024 C30.324594,17.4458024 29.564132,16.1947198 27.7978977,16.1947198 C27.0374358,16.1947198 27.1600909,17.2495542 27.1600909,17.7401748 L27.1600909,20.4140573 C27.1600909,21.8613881 27.258215,22.3274777 28.7300769,22.8671604 C32.3361385,24.118243 34.6665865,26.473222 34.6665865,30.2510009 C34.6665865,34.6175245 31.8209869,37.5857793 28.2394563,37.5857793 C27.5525874,37.5857793 27.2827461,38.0763999 27.2827461,38.8123309 C27.2827461,39.5727928 26.7921254,39.4256066 26.1543186,39.4256066 C25.5655739,39.4256066 25.0994843,39.5727928 25.0749532,38.910455 C25.0504222,37.9046827 24.5598016,37.5857793 23.5049672,37.5857793 C21.787795,37.5857793 18.5496989,36.0893864 18.5496989,35.5006416 C18.5496989,34.7892417 19.6045332,30.6434974 20.1442159,30.6434974 C21.3217054,30.6434974 22.0821674,32.4587937 24.118243,32.4587937 C25.0504222,32.4587937 24.9522981,31.6002076 24.9522981,30.9869318 L24.9522981,28.0922701 L24.927767,28.0922701 Z M24.927767,17.6911128 C24.927767,16.8079956 25.0749532,16.1701888 24.3144913,16.1701888 C22.9407535,16.1701888 22.2538846,17.5193955 22.2538846,18.7950092 C22.2538846,20.217809 23.7993396,21.4443606 24.3880844,21.4443606 C24.854174,21.4443606 24.9522981,20.3159331 24.9522981,19.408285 L24.9522981,17.6911128 L24.927767,17.6911128 Z M27.1355599,31.2322421 C27.1355599,31.943642 27.1355599,32.4342627 28.018677,32.4342627 C29.4905389,32.4342627 30.4717802,31.3303663 30.4717802,30.0056906 C30.4717802,28.80367 28.7055459,27.233684 27.7243046,27.233684 C27.0374358,27.233684 27.1110288,27.8224288 27.1110288,28.4357045 L27.1110288,31.2322421 L27.1355599,31.2322421 Z"/>
    </g>
    <g transform="translate(193.28 126.406)">
      <circle cx="25.463" cy="25.635" r="25.071" fill="#FE9249"/>
      <path fill="#FFF" d="M37.6551333,14.4733086 C38.8816849,14.8903361 39.6912089,17.4170323 38.7835608,21.4891836 C37.8759126,25.5613348 36.5267059,34.8585957 36.5267059,34.8585957 L33.1168925,34.8585957 C33.1168925,34.8585957 34.7114095,24.8989969 31.5223754,23.9913488 C28.3578724,23.0837006 26.3217968,34.8585957 19.0606115,34.8585957 C11.8239572,34.8585957 7.28571635,35.079375 7.06493706,33.0432994 C6.84415778,31.0072238 16.8037566,29.1919274 20.8759078,23.9913488 C26.9105415,16.2886049 35.6190577,13.8109707 37.6551333,14.4733086 Z"/>
    </g>
    <g transform="translate(140.215 152.743)">
      <path fill="#6855EF" d="M51.0287845,25.1037233 C51.0287845,38.9637561 39.7935721,50.1744375 25.9580704,50.1744375 C12.0980376,50.1744375 0.887356206,38.9392251 0.887356206,25.1037233 C0.887356206,11.2436906 12.1225686,0.0330091783 25.9580704,0.0330091783 C39.7935721,0.0330091783 51.0287845,11.2682216 51.0287845,25.1037233 Z"/>
      <g fill="#FFF" transform="translate(9.812 13.815)">
        <path d="M29.4169458,21.8859191 L2.18750087,21.8859191 C1.08360446,21.8859191 0.200487325,21.002802 0.200487325,19.8989056 L0.200487325,2.48187325 C0.200487325,1.37797684 1.08360446,0.494859703 2.18750087,0.494859703 L29.4169458,0.494859703 C30.5208422,0.494859703 31.4039594,1.37797684 31.4039594,2.48187325 L31.4039594,19.8989056 C31.4039594,20.978271 30.5208422,21.8859191 29.4169458,21.8859191 Z M4.17451442,17.887361 L27.4299323,17.887361 L27.4299323,4.4688868 L4.17451442,4.4688868 L4.17451442,17.887361 L4.17451442,17.887361 Z"/>
        <path d="M16.1947198,14.9681683 C15.7776923,14.9681683 15.3606648,14.8455131 14.9926993,14.5756718 L0.985480332,4.0763903 L3.36499038,0.887356206 L16.1456578,10.4789895 L28.1658632,0.936418269 L30.6434974,4.05185927 L17.4212714,14.5511407 C17.0533059,14.8209821 16.6362784,14.9681683 16.1947198,14.9681683 Z"/>
      </g>
    </g>
    <g transform="translate(289.854 173.918)">
      <circle cx="28.941" cy="28.144" r="24.457" fill="#6855EF" transform="rotate(-80.752 28.94 28.144)"/>
      <path fill="#FFF" d="M28.9508562,45.6564886 C19.2856298,45.6564886 11.4356997,37.8065586 11.4356997,28.1413322 C11.4356997,18.4761058 19.2856298,10.6261757 28.9508562,10.6261757 C38.6160826,10.6261757 46.4660127,18.4761058 46.4660127,28.1413322 C46.4660127,37.8065586 38.5915516,45.6564886 28.9508562,45.6564886 Z M28.9508562,14.6247338 C21.4934226,14.6247338 15.4342579,20.6838986 15.4342579,28.1413322 C15.4342579,35.5987657 21.4934226,41.6824615 28.9508562,41.6824615 C36.4082898,41.6824615 42.4919856,35.6232968 42.4919856,28.1413322 C42.4674545,20.6838986 36.4082898,14.6247338 28.9508562,14.6247338 Z"/>
      <path fill="#FFF" d="M28.9508562,30.1283457 C28.6319528,30.1283457 28.3375804,30.0547526 28.043208,29.9075664 L22.1557605,26.9393116 C21.1745192,26.448691 20.7820227,25.2466705 21.2726434,24.2654292 C21.763264,23.2841879 22.9652845,22.8916914 23.9465258,23.3823121 L28.9017941,25.8844773 L36.2365726,21.8368571 C37.1932828,21.2971744 38.4198344,21.6651399 38.934986,22.6218501 C39.4746687,23.5785603 39.1067032,24.8051119 38.149993,25.3202635 L29.8830354,29.8830354 C29.6131941,30.0547526 29.2697596,30.1283457 28.9508562,30.1283457 Z"/>
    </g>
    <g transform="translate(87.15 160.749)">
      <path fill="#FE9249" d="M45.5135415,23.4761971 C45.5135415,35.9870232 35.3822255,46.1183392 22.8713995,46.1183392 C10.3605734,46.1183392 0.22925743,35.9870232 0.22925743,23.4761971 C0.22925743,10.9653711 10.3605734,0.83405507 22.8713995,0.83405507 C35.3822255,0.83405507 45.5135415,10.9653711 45.5135415,23.4761971 Z"/>
      <g fill="#FFF" transform="translate(10.459 11.62)">
        <path d="M17.3679703,26.6001163 C16.8528186,26.6001163 16.337667,26.403868 15.9697015,26.0113715 L11.3088055,21.3504755 L7.04040603,25.618875 C6.50072334,26.1585577 5.71573033,26.3302749 4.97979939,26.0849646 C4.26839948,25.8396543 3.75324781,25.2018475 3.65512369,24.4659165 L0.809524038,2.65782955 C0.66233785,1.57846416 1.44733086,0.572691871 2.52669624,0.425505682 C3.60606163,0.278319493 4.61183392,1.0633125 4.7590201,2.14267788 L7.08946809,19.9276757 L9.91053671,17.1066071 C10.6955297,16.3216141 11.9466123,16.3216141 12.7316053,17.1066071 L17.3925013,21.7675031 L19.5757631,19.5842413 C20.3607561,18.7992483 21.6118387,18.7992483 22.3968317,19.5842413 C23.1818247,20.3692343 23.1818247,21.6203169 22.3968317,22.4053099 L18.7907701,26.0113715 C18.3737426,26.403868 17.8831219,26.6001163 17.3679703,26.6001163 Z"/>
        <path d="M21.5382456,22.4298409 C21.023094,22.4298409 20.5079423,22.2335927 20.1399768,21.8410962 C19.3549838,21.0561031 19.3549838,19.8050205 20.1399768,19.0200275 L22.3232386,16.8367657 L17.6623427,12.1758698 C16.8773497,11.3908767 16.8773497,10.1397941 17.6623427,9.35480114 L20.4834113,6.53373252 L2.69841346,4.20328453 C1.61904808,4.05609834 0.83405507,3.05032605 0.981241259,1.97096066 C1.12842745,0.867064248 2.13419974,0.106602273 3.21356512,0.253788462 L25.0216521,3.09938811 C25.7821141,3.19751224 26.3953899,3.7126639 26.6407002,4.42406381 C26.8860105,5.13546372 26.6897622,5.94498776 26.1746106,6.48467045 L21.9062111,10.7530699 L26.5671071,15.4139659 C27.3521001,16.1989589 27.3521001,17.4500415 26.5671071,18.2350345 L22.9610455,21.8410962 C22.568549,22.2335927 22.0533973,22.4298409 21.5382456,22.4298409 Z"/>
      </g>
    </g>
    <g transform="translate(284.948 208.261)">
      <path fill="#7B83FF" d="M88.806573,121.015817 L18.0590782,121.015817 C15.8512854,121.015817 14.0850511,119.225052 14.0850511,117.04179 C14.0850511,114.833997 15.8758164,113.067763 18.0590782,113.067763 L88.806573,113.067763 C93.0259104,113.067763 96.4847858,109.633419 96.4847858,105.38955 L96.4847858,105.14424 C96.4847858,100.924903 93.0504414,97.4660271 88.806573,97.4660271 L18.0590782,97.4660271 C15.8512854,97.4660271 14.0850511,95.6752618 14.0850511,93.492 C14.0850511,91.2842072 15.8758164,89.5179729 18.0590782,89.5179729 L88.806573,89.5179729 C97.4414961,89.5179729 104.457371,96.5338479 104.457371,105.168771 L104.457371,105.414081 C104.43284,113.999942 97.416965,121.015817 88.806573,121.015817 Z"/>
      <path fill="#7B83FF" d="M95.9941652,97.4414961 C95.6997928,97.4414961 95.4054205,97.392434 95.1355791,97.3188409 C93.5655931,96.8527513 92.6579449,95.1846412 93.1485656,93.5901241 L112.380894,29.9566285 L7.31448645,29.9566285 L19.5800022,93.9090275 C19.8989056,95.5280756 18.8195402,97.0980616 17.2004921,97.416965 C15.556913,97.7358684 14.011458,96.6565031 13.6925546,95.037455 L0.0778321678,23.9710568 L120.427073,23.9710568 L98.8642959,95.3072963 C98.4717994,96.607441 97.2943099,97.4414961 95.9941652,97.4414961 Z"/>
      <path fill="#4396CA" d="M116.403983,29.9566285 C116.060549,29.9566285 115.741646,29.9075664 115.398211,29.7849113 C113.852756,29.2206976 113.043232,27.5280564 113.582915,25.9580704 L121.923465,2.55546635 L141.818132,2.55546635 C143.461711,2.55546635 144.810918,3.90467308 144.810918,5.54825219 C144.810918,7.19183129 143.461711,8.54103802 141.818132,8.54103802 L126.142803,8.54103802 L119.225052,27.9696149 C118.783493,29.1961665 117.630535,29.9566285 116.403983,29.9566285 Z"/>
      <path fill="#7B83FF" d="M158.597358,10.5280516 L141.842663,10.5280516 C139.095187,10.5280516 136.862864,8.29572771 136.862864,5.54825219 C136.862864,2.80077666 139.095187,0.568452797 141.842663,0.568452797 L158.597358,0.568452797 C161.344833,0.568452797 163.577357,2.80077666 163.577357,5.54825219 C163.601688,8.29572771 161.369364,10.5280516 158.597358,10.5280516 Z"/>
      <path fill="#FE9249" d="M76.5165262 137.96676C76.5165262 145.792159 82.8700634 152.145696 90.6954624 152.145696 98.5208615 152.145696 104.874399 145.792159 104.874399 137.96676 104.874399 130.141361 98.5208615 123.787824 90.6954624 123.787824 82.8700634 123.787824 76.5165262 130.141361 76.5165262 137.96676zM9.81665166 137.96676C9.81665166 145.792159 16.1701888 152.145696 23.9955878 152.145696 31.8209869 152.145696 38.174524 145.792159 38.174524 137.96676 38.174524 130.141361 31.8209869 123.787824 23.9955878 123.787824 16.1701888 123.787824 9.81665166 130.141361 9.81665166 137.96676z"/>
      <path fill="#FFF" d="M84.0720839 137.96676C84.0720839 141.621884 87.0403387 144.590139 90.6954624 144.590139 94.3505861 144.590139 97.3188409 141.621884 97.3188409 137.96676 97.3188409 134.311636 94.3505861 131.343382 90.6954624 131.343382 87.0403387 131.343382 84.0720839 134.311636 84.0720839 137.96676zM16.6853405 137.96676C16.6853405 141.621884 19.6535953 144.590139 23.308719 144.590139 26.9638427 144.590139 29.9320975 141.621884 29.9320975 137.96676 29.9320975 134.311636 26.9638427 131.343382 23.308719 131.343382 19.6535953 131.343382 16.6853405 134.311636 16.6853405 137.96676z"/>
      <path fill="#7B83FF" d="M81.766167 95.7488549C81.5944497 95.7488549 81.4227325 95.7243239 81.2510153 95.6997928 79.6319672 95.4054205 78.5280708 93.8599655 78.8224432 92.2409174L89.8123453 28.9753872C90.1067177 27.3563392 91.6521726 26.2524427 93.2712207 26.5468151 94.8902688 26.8411875 95.9941652 28.3866425 95.6997928 30.0056906L84.7098907 93.2712207C84.4645804 94.7185516 83.1889668 95.7488549 81.766167 95.7488549zM66.2870861 94.3751171C66.213493 94.3751171 66.1644309 94.3751171 66.0908378 94.3751171 64.4472587 94.276993 63.1961761 92.8541932 63.2943003 91.186083L67.4155135 28.6074218C67.5136377 26.9638427 68.9364375 25.7127601 70.6045476 25.8108842 72.2481267 25.9090083 73.4992094 27.3318081 73.4010852 28.9999183L69.2798719 91.5785795C69.1572168 93.1485656 67.8570721 94.3751171 66.2870861 94.3751171zM33.9797177 95.7488549C32.5323868 95.7488549 31.2567732 94.6940205 31.0359939 93.2221587L21.0763951 29.9566285C20.8310848 28.3375804 21.9349812 26.7921254 23.5540293 26.5468151 25.1730774 26.3015048 26.7185323 27.4054012 26.9638427 29.0244493L36.9234414 92.2899795C37.1687517 93.9090275 36.0648553 95.4544825 34.4458073 95.6997928 34.27409 95.7243239 34.1269038 95.7488549 33.9797177 95.7488549zM50.4645708 94.3751171C48.8700538 94.3751171 47.5699091 93.1240345 47.471785 91.5295175L44.380875 28.9508562C44.3072819 27.3072771 45.5583645 25.9090083 47.2264747 25.8108842 48.8700538 25.7127601 50.2683226 26.9883737 50.3664467 28.6564838L53.4573566 91.2351451C53.5309497 92.8787242 52.2798671 94.276993 50.611757 94.3751171 50.5626949 94.3751171 50.5136329 94.3751171 50.4645708 94.3751171z"/>
      <path fill="#7B83FF" d="M109.608888 51.7401844L10.6016447 51.7401844C8.95806556 51.7401844 7.60885883 50.3909777 7.60885883 48.7473986 7.60885883 47.1038195 8.95806556 45.7546128 10.6016447 45.7546128L109.608888 45.7546128C111.252467 45.7546128 112.601674 47.1038195 112.601674 48.7473986 112.601674 50.3909777 111.252467 51.7401844 109.608888 51.7401844zM101.366461 73.7445197L14.0359891 73.7445197C12.39241 73.7445197 11.0432032 72.3953129 11.0432032 70.7517338 11.0432032 69.1081547 12.39241 67.758948 14.0359891 67.758948L101.366461 67.758948C103.01004 67.758948 104.359247 69.1081547 104.359247 70.7517338 104.334716 72.3953129 103.01004 73.7445197 101.366461 73.7445197z"/>
    </g>
    <circle cx="187.54" cy="74.596" r="12.29" fill="#7B83FF"/>
    <path fill="#2CBFC6" d="M152.362222 94.5151661C152.362222 98.366538 149.246781 101.481979 145.395409 101.481979 141.544037 101.481979 138.428596 98.366538 138.428596 94.5151661 138.428596 90.6637941 141.544037 87.5483531 145.395409 87.5483531 149.22225 87.5483531 152.362222 90.6637941 152.362222 94.5151661zM303.767748 168.230916C303.767748 172.082288 300.652307 175.197729 296.800935 175.197729 292.949563 175.197729 289.834122 172.082288 289.834122 168.230916 289.834122 164.379544 292.949563 161.264103 296.800935 161.264103 300.652307 161.264103 303.767748 164.379544 303.767748 168.230916z"/>
    <path fill="#FFD3D2" d="M411.679756,188.493548 C411.679756,191.069306 409.594618,193.129913 407.043391,193.129913 C404.467632,193.129913 402.382495,191.044775 402.382495,188.493548 C402.382495,185.917789 404.467632,183.832652 407.043391,183.832652 C409.594618,183.832652 411.679756,185.917789 411.679756,188.493548 Z"/>
    <path fill="#FE9249" d="M296.138597,71.9466171 C296.138597,76.9018855 292.115508,80.9004436 287.184771,80.9004436 C282.229503,80.9004436 278.230944,76.8773545 278.230944,71.9466171 C278.230944,66.9913488 282.254034,62.9926791 287.184771,62.9926791 C292.115508,62.9682596 296.138597,66.9913488 296.138597,71.9466171 Z"/>
    <g transform="translate(195.087 43)">
      <circle cx="42.919" cy="42.877" r="35.521" fill="#FFD3D2" transform="rotate(-76.803 42.92 42.877)"/>
      <g fill="#FFF" transform="translate(13.815 18.075)">
        <path d="M13.4227133 44.7488405C6.30871416 44.7488405.519390734 38.959517.519390734 31.8455179.519390734 24.7315188 6.30871416 18.9421954 13.4227133 18.9421954 20.5367124 18.9421954 26.3260358 24.7315188 26.3260358 31.8455179 26.3260358 38.959517 20.5367124 44.7488405 13.4227133 44.7488405zM13.4227133 22.9162225C8.51650699 22.9162225 4.49341783 26.9147806 4.49341783 31.8455179 4.49341783 36.7517242 8.49197596 40.7502823 13.4227133 40.7502823 18.3289196 40.7502823 22.32759 36.7517242 22.32759 31.8455179 22.3520087 26.9147806 18.3534506 22.9162225 13.4227133 22.9162225zM43.6449441 45.3375852C36.5309449 45.3375852 30.7416215 39.5482618 30.7416215 32.4342627 30.7416215 25.3202635 36.5309449 19.5309401 43.6449441 19.5309401 50.7589432 19.5309401 56.5482666 25.3202635 56.5482666 32.4342627 56.5482666 39.5482618 50.7589432 45.3375852 43.6449441 45.3375852zM43.6449441 23.5049672C38.7387378 23.5049672 34.7156486 27.5035253 34.7156486 32.4097316 34.7156486 37.3159379 38.7142067 41.3390271 43.6449441 41.3390271 48.5511503 41.3390271 52.5742395 37.340469 52.5742395 32.4097316 52.5742395 27.5035253 48.5756814 23.5049672 43.6449441 23.5049672z"/>
        <path d="M33.0966005 33.4155039C33.0966005 33.4155039 33.0720695 33.4155039 33.0966005 33.4155039L14.3303615 33.1947247C13.6189615 33.1947247 12.9811547 32.8022281 12.6377203 32.2134834 12.2942858 31.6002076 12.2697548 30.8642767 12.6131892 30.2510009L20.5612434 15.9248785C20.8801469 15.3361337 21.4934226 14.9436372 22.1802915 14.8945752 22.8671604 14.8455131 23.5049672 15.1398855 23.9219948 15.7040992L34.7401796 30.2510009C35.1817382 30.8642767 35.2553313 31.6738007 34.9118969 32.3361385 34.5439314 32.9984764 33.8570625 33.4155039 33.0966005 33.4155039zM17.7156438 29.2452286L29.0980424 29.3678837 22.523726 20.5121814 17.7156438 29.2452286zM27.3563392 11.8036652C27.1600909 11.8036652 26.9393116 11.7791342 26.7430634 11.7055411L18.5742299 9.05618969C17.5193955 8.71275524 16.9551818 7.5843278 17.2986163 6.55402448 17.6420507 5.49919012 18.7704781 4.9349764 19.8007815 5.27841084L27.9696149 7.92776224C29.0244493 8.27119668 29.588663 9.39962413 29.2452286 10.4299274 28.9753872 11.2639825 28.2149253 11.8036652 27.3563392 11.8036652zM43.6694751 33.4155039C43.595882 33.4155039 43.5222889 33.4155039 43.4486958 33.4155039 42.3447994 33.2928488 41.5598064 32.3116075 41.6824615 31.2077111L44.356344 6.94652098C44.4789991 5.84262456 45.4847714 5.08216259 46.5641368 5.18028671 47.6680332 5.30294187 48.4530262 6.28418313 48.3303711 7.38807955L45.6564886 31.6492697C45.5338335 32.655042 44.6507163 33.4155039 43.6694751 33.4155039z"/>
        <path d="M53.6781359,13.2755271 C53.2856394,13.2755271 52.8931429,13.1528719 52.5497085,12.9320927 L39.6218549,4.10092133 C38.7142067,3.48764554 38.4688964,2.23656294 39.1067032,1.32891477 C39.719979,0.421266608 40.9710616,0.175956294 41.8787098,0.813763112 L54.8065634,9.64493444 C55.7142115,10.2582102 55.9595219,11.5092928 55.321715,12.416941 C54.9537496,12.9811547 54.3159427,13.2755271 53.6781359,13.2755271 Z"/>
        <rect width="10.548" height="3.974" x="33.097" y="29.441"/>
        <path d="M22.523726,19.3101608 C21.4198295,19.3101608 20.5367124,18.4270437 20.5367124,17.3231473 L20.5367124,9.15431381 C20.5367124,8.0504174 21.4198295,7.16730026 22.523726,7.16730026 C23.6276224,7.16730026 24.5107395,8.0504174 24.5107395,9.15431381 L24.5107395,17.3231473 C24.5107395,18.4025127 23.6030913,19.3101608 22.523726,19.3101608 Z"/>
      </g>
    </g>
    <g transform="translate(253.961 114.14)">
      <path fill="#FF4F4F" d="M44.8266726,22.8874524 C44.8266726,35.1774991 34.8670739,45.1370979 22.5770271,45.1370979 C10.2869803,45.1370979 0.327381556,35.1774991 0.327381556,22.8874524 C0.327381556,10.5974056 10.2869803,0.637806818 22.5770271,0.637806818 C34.8670739,0.637806818 44.8266726,10.5974056 44.8266726,22.8874524 Z"/>
      <g fill="#FFF" transform="translate(5.552 15.622)">
        <path d="M7.53102666 15.2380096C3.43434441 15.2380096.0735930944 11.9017893.0735930944 7.78057605.0735930944 3.65936276 3.40981337.323142483 7.53102666.323142483 11.6522399.323142483 14.9884602 3.65936276 14.9884602 7.78057605 14.9884602 11.9017893 11.6522399 15.2380096 7.53102666 15.2380096zM7.53102666 4.32170061C5.61760621 4.32170061 4.07215122 5.86715559 4.07215122 7.78057605 4.07215122 9.6939965 5.61760621 11.2394515 7.53102666 11.2394515 9.44444712 11.2394515 10.9899021 9.6939965 10.9899021 7.78057605 10.9899021 5.86715559 9.44444712 4.32170061 7.53102666 4.32170061zM25.1933693 15.2380096C21.0966871 15.2380096 17.7359358 11.9017893 17.7359358 7.78057605 17.7359358 3.65936276 21.072156.323142483 25.1933693.323142483 29.2900516.323142483 32.6508029 3.65936276 32.6508029 7.78057605 32.6508029 11.9017893 29.2900516 15.2380096 25.1933693 15.2380096zM25.1933693 4.32170061C23.2799489 4.32170061 21.7344939 5.86715559 21.7344939 7.78057605 21.7344939 9.6939965 23.2799489 11.2394515 25.1933693 11.2394515 27.1067898 11.2394515 28.6522448 9.6939965 28.6522448 7.78057605 28.6522448 5.86715559 27.0822587 4.32170061 25.1933693 4.32170061z"/>
        <rect width="5.446" height="3.974" x="13.639" y="5.794"/>
      </g>
    </g>
  </g>
</svg>
